<?xml version="1.0" encoding="UTF-8" standalone="no"?>
<!-- Created with Inkscape (http://www.inkscape.org/) -->

<svg
   xmlns:dc="http://purl.org/dc/elements/1.1/"
   xmlns:cc="http://creativecommons.org/ns#"
   xmlns:rdf="http://www.w3.org/1999/02/22-rdf-syntax-ns#"
   xmlns:svg="http://www.w3.org/2000/svg"
   xmlns="http://www.w3.org/2000/svg"
   xmlns:sodipodi="http://sodipodi.sourceforge.net/DTD/sodipodi-0.dtd"
   xmlns:inkscape="http://www.inkscape.org/namespaces/inkscape"
   version="1.1"
   id="svg2"
   xml:space="preserve"
   width="187"
   height="54"
   viewBox="0 0 187 54.000001"
   sodipodi:docname="logo.svg"
   inkscape:version="0.92.3 (2405546, 2018-03-11)"
   inkscape:export-filename="/home/sergio/Descargas/zacatrus-logo.png"
   inkscape:export-xdpi="96"
   inkscape:export-ydpi="96"><metadata
     id="metadata8"><rdf:RDF><cc:Work
         rdf:about=""><dc:format>image/svg+xml</dc:format><dc:type
           rdf:resource="http://purl.org/dc/dcmitype/StillImage" /><dc:title></dc:title></cc:Work></rdf:RDF></metadata><defs
     id="defs6"><clipPath
       clipPathUnits="userSpaceOnUse"
       id="clipPath22"><path
         d="M 0,595.276 H 841.89 V 0 H 0 Z"
         id="path20"
         inkscape:connector-curvature="0" /></clipPath></defs><sodipodi:namedview
     pagecolor="#ffffff"
     bordercolor="#666666"
     borderopacity="1"
     objecttolerance="10"
     gridtolerance="10"
     guidetolerance="10"
     inkscape:pageopacity="0"
     inkscape:pageshadow="2"
     inkscape:window-width="1853"
     inkscape:window-height="1016"
     id="namedview4"
     showgrid="false"
     fit-margin-top="0"
     fit-margin-left="0"
     fit-margin-right="0"
     fit-margin-bottom="0"
     inkscape:zoom="4.0605638"
     inkscape:cx="105.78442"
     inkscape:cy="-0.63734124"
     inkscape:window-x="67"
     inkscape:window-y="27"
     inkscape:window-maximized="1"
     inkscape:current-layer="g10" /><g
     id="g10"
     inkscape:groupmode="layer"
     inkscape:label="ZCTRS.PRESENT.2b"
     transform="matrix(1.3333333,0,0,-1.3333333,-95.780798,341.44465)"><g
       id="g16"
       inkscape:export-xdpi="20.620001"
       inkscape:export-ydpi="20.620001"
       transform="matrix(0.20086839,0,0,0.20086839,57.406099,176.04743)"><g
         id="g18"
         clip-path="url(#clipPath22)"><g
           id="g24"
           transform="translate(756.8446,230.3525)"><path
             d="M 0,0 C 0,-4.782 -3.877,-8.659 -8.659,-8.659 H -670.24 c -4.782,0 -8.659,3.877 -8.659,8.659 v 134.571 c 0,4.782 3.877,8.659 8.659,8.659 H -8.659 c 4.782,0 8.659,-3.877 8.659,-8.659 v -29.375 h 6.11 v 29.375 c 0,8.143 -6.626,14.769 -14.769,14.769 H -670.24 c -8.144,0 -14.769,-6.626 -14.769,-14.769 V 0 c 0,-8.144 6.625,-14.769 14.769,-14.769 H -8.659 C -0.516,-14.769 6.11,-8.144 6.11,0 V 29.375 H 0 Z"
             style="fill:#010101;fill-opacity:1;fill-rule:nonzero;stroke:none"
             id="path26"
             inkscape:connector-curvature="0" /></g><g
           id="g28"
           transform="translate(748.973,318.0603)"><path
             d="m 0,0 c 0,-5.423 4.094,-18.826 7.079,-28.603 0.587,-1.956 1.16,-3.807 1.629,-5.397 0.131,-0.418 0.509,-0.705 0.939,-0.705 h 1.787 c 0.43,0 0.808,0.287 0.938,0.705 0.469,1.577 1.03,3.441 1.63,5.397 2.985,9.777 7.079,23.18 7.079,28.603 0,5.815 -4.72,10.547 -10.534,10.547 C 4.732,10.547 0,5.815 0,0"
             style="fill:#010101;fill-opacity:1;fill-rule:nonzero;stroke:none"
             id="path30"
             inkscape:connector-curvature="0" /></g><g
           id="g32"
           transform="translate(759.5331,279.7966)"><path
             d="m 0,0 c -3.625,0 -6.571,-2.947 -6.571,-6.571 0,-3.611 2.946,-6.557 6.571,-6.557 3.624,0 6.571,2.946 6.571,6.557 C 6.571,-2.947 3.624,0 0,0"
             style="fill:#010101;fill-opacity:1;fill-rule:nonzero;stroke:none"
             id="path34"
             inkscape:connector-curvature="0" /></g><g
           id="g36"
           transform="translate(156.3397,322.2727)"><path
             d="m 0,0 -45.994,-57.37 v -7.151 h 60.62 c 6.988,0 9.915,2.926 9.915,9.914 v 9.752 H 14.139 v -6.339 c 0,-2.438 -1.301,-3.576 -3.576,-3.576 h -33.804 c -5.363,0 -8.288,-0.324 -8.288,-0.324 v 0.324 c 0,0 3.575,3.576 6.825,7.477 L 21.127,9.914 v 7.313 h -56.719 c -6.989,0 -9.914,-2.925 -9.914,-9.914 v -9.751 h 10.401 V 3.9 c 0,2.438 1.3,3.576 3.576,3.576 H -1.625 C 3.738,7.476 6.5,7.801 6.5,7.801 V 7.476 C 6.5,7.476 3.087,3.9 0,0"
             style="fill:#e84336;fill-opacity:1;fill-rule:nonzero;stroke:none"
             id="path38"
             inkscape:connector-curvature="0" /></g><g
           id="g40"
           transform="translate(246.2093,295.6194)"><path
             d="m 0,0 c 0,-14.139 -9.426,-30.391 -25.028,-30.391 -12.189,0 -18.202,7.801 -18.202,15.439 0,18.365 25.678,18.69 38.517,18.69 H 0 Z m 10.239,-37.867 h 11.214 v 9.588 h -6.826 c -2.275,0 -3.575,1.138 -3.575,3.576 v 39.167 c 0,17.552 -6.176,31.367 -32.017,31.367 -7.151,0 -26.653,-2.438 -26.653,-13.815 v -7.801 h 10.564 v 5.201 c 0,6.013 11.864,7.151 15.927,7.151 C -6.176,36.567 0,30.554 0,13.489 v -0.975 h -4.55 c -14.14,0 -50.056,-0.975 -50.056,-28.116 0,-16.252 14.139,-24.216 27.791,-24.216 20.477,0 27.303,17.715 27.14,17.715 H 0.65 c 0,0 -0.162,-2.438 -0.162,-6.013 0,-6.664 2.762,-9.751 9.751,-9.751"
             style="fill:#517cbe;fill-opacity:1;fill-rule:nonzero;stroke:none"
             id="path42"
             inkscape:connector-curvature="0" /></g><g
           id="g44"
           transform="translate(349.7318,316.7471)"><path
             d="m 0,0 v 7.313 c 0,13.489 -19.828,17.39 -29.092,17.39 -24.377,0 -43.067,-17.877 -43.067,-42.905 0,-25.353 18.527,-42.743 42.905,-42.743 20.965,0 32.017,13.326 32.017,13.326 l -5.201,8.289 c 0,0 -9.588,-11.539 -26.329,-11.539 -17.226,0 -32.016,12.514 -32.016,32.667 0,19.827 14.139,32.991 31.691,32.991 6.826,0 18.691,-3.25 18.691,-10.076 V 0 Z"
             style="fill:#fbbc0c;fill-opacity:1;fill-rule:nonzero;stroke:none"
             id="path46"
             inkscape:connector-curvature="0" /></g><g
           id="g48"
           transform="translate(417.9876,295.6194)"><path
             d="m 0,0 c 0,-14.139 -9.426,-30.391 -25.028,-30.391 -12.189,0 -18.202,7.801 -18.202,15.439 0,18.365 25.678,18.69 38.517,18.69 H 0 Z m 10.239,-37.867 h 11.214 v 9.588 h -6.826 c -2.275,0 -3.576,1.138 -3.576,3.576 v 39.167 c 0,17.552 -6.175,31.367 -32.016,31.367 -7.151,0 -26.654,-2.438 -26.654,-13.815 v -7.801 h 10.565 v 5.201 c 0,6.013 11.863,7.151 15.927,7.151 C -6.176,36.567 0,30.554 0,13.489 v -0.975 h -4.55 c -14.139,0 -50.056,-0.975 -50.056,-28.116 0,-16.252 14.139,-24.216 27.79,-24.216 20.478,0 27.304,17.715 27.141,17.715 H 0.65 c 0,0 -0.162,-2.438 -0.162,-6.013 0,-6.664 2.762,-9.751 9.751,-9.751"
             style="fill:#32a853;fill-opacity:1;fill-rule:nonzero;stroke:none"
             id="path50"
             inkscape:connector-curvature="0" /></g><g
           id="g52"
           transform="translate(486.4056,257.1018)"><path
             d="m 0,0 c 2.762,0 4.713,0.325 4.713,0.325 v 9.914 c 0,0 -1.463,-0.325 -3.738,-0.325 -6.176,0 -18.365,2.438 -18.365,21.615 V 73.134 H 3.087 v 9.264 H -17.39 v 22.59 h -10.889 v -22.59 h -10.888 v -9.264 h 10.726 V 30.392 C -28.441,3.088 -9.426,0 0,0"
             style="fill:#010101;fill-opacity:1;fill-rule:nonzero;stroke:none"
             id="path54"
             inkscape:connector-curvature="0" /></g><g
           id="g56"
           transform="translate(522.4823,257.7522)"><path
             d="m 0,0 v 34.454 c 0,5.201 0.649,10.726 2.275,15.927 3.576,12.027 12.189,21.128 23.728,21.128 2.112,0 4.063,-0.325 4.063,-0.325 v 10.889 c 0,0 -2.113,0.487 -4.388,0.487 -12.84,0 -21.94,-9.426 -25.841,-21.778 h -0.325 c 0,0 0.325,2.763 0.325,6.176 v 5.526 c 0,6.501 -3.087,9.264 -9.914,9.264 h -11.376 v -9.589 h 6.826 c 2.275,0 3.575,-1.3 3.575,-3.576 V 0 Z"
             style="fill:#010101;fill-opacity:1;fill-rule:nonzero;stroke:none"
             id="path58"
             inkscape:connector-curvature="0" /></g><g
           id="g60"
           transform="translate(630.392,266.8535)"><path
             d="m 0,0 c 0,-6.176 3.088,-9.101 9.914,-9.101 h 11.214 v 9.588 h -6.826 c -2.275,0 -3.575,1.138 -3.575,3.576 V 72.646 H -0.325 V 33.479 c 0,-17.715 -11.539,-34.129 -30.066,-34.129 -15.764,0 -17.877,11.376 -17.877,24.215 v 39.493 c 0,6.663 -2.925,9.588 -9.914,9.588 h -11.539 v -9.588 h 6.826 c 2.275,0 3.575,-1.3 3.575,-3.576 V 20.64 c 0,-21.29 8.127,-31.692 27.466,-31.692 17.877,0 28.604,12.677 31.854,20.641 H 0.325 C 0.325,9.589 0,6.988 0,3.738 Z"
             style="fill:#010101;fill-opacity:1;fill-rule:nonzero;stroke:none"
             id="path62"
             inkscape:connector-curvature="0" /></g><g
           id="g64"
           transform="translate(691.4969,265.3904)"><path
             d="m 0,0 c -16.09,0 -25.19,12.352 -25.19,12.352 l -6.339,-7.638 c 0,0 10.076,-14.303 31.366,-14.303 16.252,0 28.603,9.265 28.603,22.916 0,27.141 -45.83,22.915 -45.83,41.28 0,7.964 6.827,11.864 18.202,11.864 5.364,0 14.14,-2.275 14.14,-8.289 v -3.9 h 10.401 v 6.988 c 0,11.539 -16.577,14.79 -24.866,14.79 -16.414,0 -29.091,-7.314 -29.091,-22.103 0,-26.328 45.832,-23.078 45.832,-40.955 C 17.228,4.388 9.101,0 0,0"
             style="fill:#010101;fill-opacity:1;fill-rule:nonzero;stroke:none"
             id="path66"
             inkscape:connector-curvature="0" /></g></g></g></g></svg>